<svg width="48" height="48" viewBox="0 0 48 48" fill="none" xmlns="http://www.w3.org/2000/svg">
<path d="M43 20C43 34 25 46 25 46C25 46 7 34 7 20C7 15.2261 8.89642 10.6477 12.2721 7.27208C15.6477 3.89642 20.2261 2 25 2C29.7739 2 34.3523 3.89642 37.7279 7.27208C41.1036 10.6477 43 15.2261 43 20Z" fill="#B02B2D" stroke="black" stroke-width="3" stroke-linecap="round" stroke-linejoin="round"/>
<path d="M24 26C27.3137 26 30 23.3137 30 20C30 16.6863 27.3137 14 24 14C20.6863 14 18 16.6863 18 20C18 23.3137 20.6863 26 24 26Z" fill="black" stroke="black" stroke-width="2" stroke-linecap="round" stroke-linejoin="round"/>
</svg>
